Coordinates
version=1
nRows=22
nColumns=21
inDegrees=yes

Units are S.I. units (second, meters, Newtons, ...)
Angles are in degrees.

endheader
time	Pelvis_pitch	Pelvis_roll	Pelvis_yaw	Pelvis_Tx	Pelvis_Ty	Pelvis_Tz	L_hip_flex-ext	L_hip_adb-add	L_hip_LAR	L_knee_flex-ext	L_crus_pron-sup	L_ankle_flex-ext	L_MTP_flex-ext	R_hip_flex-ext	R_hip_adb-add	R_hip_LAR	R_knee_flex-ext	R_crus_pron-sup	R_ankle_flex-ext	R_MTP_flex-ext
      0.60000000	    -11.22612639	      4.20426098	     -7.31804219	      0.37083215	      0.08759206	      0.09557108	      0.00000000	      0.00000000	      0.00000000	      0.00000000	      0.00000000	      0.00000000	      0.00000000	     46.06099913	      8.46869762	    102.38458800	    -53.93765149	     50.62180678	    -39.57361315	     77.48582952
      0.60010000	    -11.22388513	      4.20302779	     -7.31703855	      0.37093462	      0.08757683	      0.09555080	      0.00000000	      0.00000000	      0.00000000	      0.00000000	      0.00000000	      0.00000000	      0.00000000	     46.06018124	      8.47075207	    102.38530056	    -53.93836117	     50.62152469	    -39.57130964	     77.48441372
      0.60020000	    -11.22133130	      4.20171646	     -7.31590813	      0.37103873	      0.08756041	      0.09552899	      0.00000000	      0.00000000	      0.00000000	      0.00000000	      0.00000000	      0.00000000	      0.00000000	     46.05925226	      8.47305258	    102.38618762	    -53.93914536	     50.62114765	    -39.56876481	     77.48285464
      0.60030000	    -11.21847844	      4.20033188	     -7.31465987	      0.37114330	      0.08754415	      0.09550628	      0.00000000	      0.00000000	      0.00000000	      0.00000000	      0.00000000	      0.00000000	      0.00000000	     46.05822040	      8.47558631	    102.38724795	    -53.94000868	     50.62067851	    -39.56597337	     77.48114600
      0.60040000	    -11.21534292	      4.19888255	     -7.31329495	      0.37124813	      0.08752804	      0.09548274	      0.00000000	      0.00000000	      0.00000000	      0.00000000	      0.00000000	      0.00000000	      0.00000000	     46.05708735	      8.47833731	    102.38847836	    -53.94095240	     50.62011994	    -39.56293200	     77.47928257
      0.60050000	    -11.21193928	      4.19737648	     -7.31181365	      0.37135319	      0.08751210	      0.09545842	      0.00000000	      0.00000000	      0.00000000	      0.00000000	      0.00000000	      0.00000000	      0.00000000	     46.05585412	      8.48129095	    102.38987652	    -53.94197822	     50.61947421	    -39.55963626	     77.47725848
      0.60060000	    -11.20827978	      4.19582099	     -7.31021548	      0.37145851	      0.08749633	      0.09543336	      0.00000000	      0.00000000	      0.00000000	      0.00000000	      0.00000000	      0.00000000	      0.00000000	     46.05452106	      8.48443447	    102.39144126	    -53.94308844	     50.61874297	    -39.55607985	     77.47506672
      0.60070000	    -11.20437402	      4.19422258	     -7.30849895	      0.37156409	      0.08748073	      0.09540757	      0.00000000	      0.00000000	      0.00000000	      0.00000000	      0.00000000	      0.00000000	      0.00000000	     46.05308769	      8.48775723	    102.39317282	    -53.94428624	     50.61792720	    -39.55225397	     77.47269873
      0.60080000	    -11.25833045	      4.29887092	     -7.04985891	      0.37171485	      0.08773714	      0.09545674	      0.00000000	      0.00000000	      0.00000000	      0.00000000	      0.00000000	      0.00000000	      0.00000000	     45.87863130	      8.33575474	    102.61891832	    -54.36733060	     50.60873432	    -38.34506280	     76.51934384
      0.60090000	    -11.25673256	      4.29397836	     -7.05447720	      0.37179833	      0.08770484	      0.09543774	      0.00000000	      0.00000000	      0.00000000	      0.00000000	      0.00000000	      0.00000000	      0.00000000	     45.88272086	      8.33877184	    102.61716026	    -54.37009541	     50.61092611	    -38.34362399	     76.51677176
      0.60100000	    -11.25441929	      4.28858489	     -7.05714567	      0.37189830	      0.08768432	      0.09541577	      0.00000000	      0.00000000	      0.00000000	      0.00000000	      0.00000000	      0.00000000	      0.00000000	     45.88504979	      8.34251423	    102.61574286	    -54.37240440	     50.61267410	    -38.34145867	     76.51380072
      0.60110000	    -11.25154645	      4.28292562	     -7.05846042	      0.37200235	      0.08766309	      0.09539003	      0.00000000	      0.00000000	      0.00000000	      0.00000000	      0.00000000	      0.00000000	      0.00000000	     45.88615981	      8.34676210	    102.61467735	    -54.37449529	     50.61407977	    -38.33858170	     76.51038726
      0.60120000	    -11.24823550	      4.27715860	     -7.05881350	      0.37210797	      0.08764255	      0.09536209	      0.00000000	      0.00000000	      0.00000000	      0.00000000	      0.00000000	      0.00000000	      0.00000000	     45.88641466	      8.35134502	    102.61396927	    -54.37652790	     50.61521275	    -38.33501150	     76.50650695
      0.60130000	    -11.24458724	      4.27139993	     -7.05845736	      0.37221401	      0.08762293	      0.09533282	      0.00000000	      0.00000000	      0.00000000	      0.00000000	      0.00000000	      0.00000000	      0.00000000	     45.88604932	      8.35613074	    102.61361600	    -54.37860188	     50.61612071	    -38.33076582	     76.50214595
      0.60140000	    -11.24068122	      4.26573193	     -7.05755980	      0.37232013	      0.08760420	      0.09530273	      0.00000000	      0.00000000	      0.00000000	      0.00000000	      0.00000000	      0.00000000	      0.00000000	     45.88522058	      8.36101972	    102.61361100	    -54.38078166	     50.61683753	    -38.32586010	     76.49729569
      0.60150000	    -11.23657875	      4.26021183	     -7.05623397	      0.37242625	      0.08758621	      0.09527213	      0.00000000	      0.00000000	      0.00000000	      0.00000000	      0.00000000	      0.00000000	      0.00000000	     45.88403426	      8.36593838	    102.61394632	    -54.38310932	     50.61738757	    -38.32030693	     76.49195057
      0.60160000	    -11.23232626	      4.25487836	     -7.05455672	      0.37253243	      0.08756881	      0.09524119	      0.00000000	      0.00000000	      0.00000000	      0.00000000	      0.00000000	      0.00000000	      0.00000000	     45.88256227	      8.37083310	    102.61461394	    -54.38561261	     50.61778845	    -38.31411605	     76.48610636
      0.60170000	    -11.22795841	      4.24975691	     -7.05258038	      0.37263873	      0.08755186	      0.09521003	      0.00000000	      0.00000000	      0.00000000	      0.00000000	      0.00000000	      0.00000000	      0.00000000	     45.88085360	      8.37566535	    102.61560644	    -54.38831013	     50.61805300	    -38.30729426	     76.47975914
      0.60180000	    -11.22350072	      4.24486317	     -7.05034053	      0.37274527	      0.08753525	      0.09517871	      0.00000000	      0.00000000	      0.00000000	      0.00000000	      0.00000000	      0.00000000	      0.00000000	     45.87894151	      8.38040784	    102.61691736	    -54.39121477	     50.61819063	    -38.29984524	     76.47290431
      0.60190000	    -11.19171621	      4.21038334	     -7.03427671	      0.37288074	      0.08754763	      0.09504887	      0.00000000	      0.00000000	      0.00000000	      0.00000000	      0.00000000	      0.00000000	      0.00000000	     45.86509314	      8.41365593	    102.62883755	    -54.41502880	     50.61871855	    -38.23902018	     76.41710348
      0.60200000	    -11.25217939	      4.21778108	     -7.02768355	      0.37297836	      0.08750673	      0.09517669	      0.00000000	      0.00000000	      0.00000000	      0.00000000	      0.00000000	      0.00000000	      0.00000000	     45.86291519	      8.36018827	    102.61460619	    -54.44093051	     50.63914617	    -38.17767637	     76.34215012
      0.60210000	    -11.24927364	      4.21606338	     -7.02705232	      0.37305928	      0.08747792	      0.09514871	      0.00000000	      0.00000000	      0.00000000	      0.00000000	      0.00000000	      0.00000000	      0.00000000	     45.86238962	      8.36281728	    102.61568449	    -54.44215599	     50.63890884	    -38.17500872	     76.33993706
